<svg width="18" height="18" viewBox="0 0 18 18" fill="none" xmlns="http://www.w3.org/2000/svg">
<path d="M0 13.7199V16.9264C0 17.5194 0.480604 18 1.0736 18H4.28014C4.87314 18 5.35374 17.5194 5.35374 16.9264C5.35374 16.3334 4.87314 15.8528 4.28014 15.8528H2.1472V13.7199C2.1472 13.1269 1.6666 12.6463 1.0736 12.6463C0.480604 12.6463 0 13.1269 0 13.7199Z" fill="url(#paint0_linear_37_697)"/>
<path d="M13.7199 0C13.1269 0 12.6463 0.480604 12.6463 1.0736C12.6463 1.6666 13.1269 2.1472 13.7199 2.1472H15.8528V4.28014C15.8528 4.87314 16.3334 5.35374 16.9264 5.35374C17.5194 5.35374 18 4.87314 18 4.28014V1.0736C18 0.480604 17.5194 0 16.9264 0H13.7199Z" fill="url(#paint1_linear_37_697)"/>
<path fill-rule="evenodd" clip-rule="evenodd" d="M12.702 11.6354C12.6983 12.225 12.2189 12.702 11.6284 12.702H6.37157C5.77878 12.702 5.29797 12.2212 5.29797 11.6284V6.37157C5.29797 5.77878 5.77878 5.29797 6.37157 5.29797H11.6284C12.2212 5.29797 12.702 5.77878 12.702 6.37157V11.6284C12.702 11.6307 12.702 11.6331 12.702 11.6354ZM10.5548 10.5548H7.44517V7.44517H10.5548V10.5548Z" fill="url(#paint2_linear_37_697)"/>
<path d="M0 4.28014V1.0736C0 0.480605 0.480604 0 1.0736 0H4.28014C4.87314 0 5.35374 0.480605 5.35374 1.0736C5.35374 1.6666 4.87314 2.1472 4.28014 2.1472H2.1472V4.28014C2.1472 4.87314 1.6666 5.35374 1.0736 5.35374C0.480604 5.35374 0 4.87314 0 4.28014Z" fill="url(#paint3_linear_37_697)"/>
<path d="M13.7199 18C13.1269 18 12.6463 17.5194 12.6463 16.9264C12.6463 16.3334 13.1269 15.8528 13.7199 15.8528H15.8528V13.7199C15.8528 13.1269 16.3334 12.6463 16.9264 12.6463C17.5194 12.6463 18 13.1269 18 13.7199V16.9264C18 17.5194 17.5194 18 16.9264 18H13.7199Z" fill="url(#paint4_linear_37_697)"/>
<defs>
<linearGradient id="paint0_linear_37_697" x1="2.35484" y1="18" x2="18.1536" y2="17.1137" gradientUnits="userSpaceOnUse">
<stop offset="0.14" stop-color="#A46F4C"/>
<stop offset="0.305" stop-color="#B78767"/>
<stop offset="0.93" stop-color="#3E2A1D"/>
</linearGradient>
<linearGradient id="paint1_linear_37_697" x1="2.35484" y1="18" x2="18.1536" y2="17.1137" gradientUnits="userSpaceOnUse">
<stop offset="0.14" stop-color="#A46F4C"/>
<stop offset="0.305" stop-color="#B78767"/>
<stop offset="0.93" stop-color="#3E2A1D"/>
</linearGradient>
<linearGradient id="paint2_linear_37_697" x1="2.35484" y1="18" x2="18.1536" y2="17.1137" gradientUnits="userSpaceOnUse">
<stop offset="0.14" stop-color="#A46F4C"/>
<stop offset="0.305" stop-color="#B78767"/>
<stop offset="0.93" stop-color="#3E2A1D"/>
</linearGradient>
<linearGradient id="paint3_linear_37_697" x1="2.35484" y1="18" x2="18.1536" y2="17.1137" gradientUnits="userSpaceOnUse">
<stop offset="0.14" stop-color="#A46F4C"/>
<stop offset="0.305" stop-color="#B78767"/>
<stop offset="0.93" stop-color="#3E2A1D"/>
</linearGradient>
<linearGradient id="paint4_linear_37_697" x1="2.35484" y1="18" x2="18.1536" y2="17.1137" gradientUnits="userSpaceOnUse">
<stop offset="0.14" stop-color="#A46F4C"/>
<stop offset="0.305" stop-color="#B78767"/>
<stop offset="0.93" stop-color="#3E2A1D"/>
</linearGradient>
</defs>
</svg>
