<svg width="37" height="37" viewBox="0 0 37 37" fill="none" xmlns="http://www.w3.org/2000/svg">
<path d="M18.9888 1.21265C18.6775 0.908167 18.1798 0.908851 17.8693 1.21419L0.43815 18.3585C0.119396 18.672 0.1173 19.1836 0.43637 19.4968C5.05497 24.0302 13.2688 32.1301 17.8746 36.6508C18.1838 36.9543 18.6765 36.9539 18.9879 36.6526L20.1822 35.4969C20.5053 35.1842 20.508 34.6675 20.187 34.3525C16.0748 30.3169 10.8153 25.1229 6.14978 20.5413L35.5879 20.5414C36.0294 20.5414 36.3873 20.1835 36.3873 19.7421L36.3873 18.116C36.3873 17.6745 36.0294 17.3166 35.588 17.3166L6.14972 17.3166L20.19 3.52821C20.5094 3.21449 20.5089 2.69957 20.1888 2.38648L18.9888 1.21265Z" fill="#294835"/>
</svg>
