<svg width="21" height="21" viewBox="0 0 21 21" fill="none" xmlns="http://www.w3.org/2000/svg">
<path d="M10.1227 19.9933C10.4767 20.3395 11.0427 20.3387 11.3957 19.9915L20.3382 11.1962C20.7369 10.804 20.7376 10.1621 20.3386 9.77013C17.8351 7.311 13.8513 3.38339 11.3873 0.963453C11.0375 0.619915 10.4793 0.619553 10.1269 0.960487C9.76131 1.31429 9.7593 1.89986 10.1223 2.25635C12.3496 4.44379 15.1104 7.16954 17.573 9.5878L1.68999 9.58772C1.19589 9.58772 0.795335 9.98827 0.795333 10.4824C0.79533 10.9765 1.19588 11.377 1.68998 11.377L17.573 11.3771L10.1214 18.6949C9.75816 19.0517 9.75874 19.6372 10.1227 19.9933Z" fill="white"/>
</svg>
