<svg width="63" height="64" viewBox="0 0 63 64" fill="none" xmlns="http://www.w3.org/2000/svg">
<path d="M62.4022 33.3294C63.1503 32.5646 63.1486 31.3417 62.3984 30.5789L33.2298 0.922292C32.4595 0.139094 31.2003 0.136242 30.4307 0.920114C22.5689 8.92741 9.07405 22.6134 1.24153 30.5912C0.495617 31.3509 0.495964 32.5622 1.23636 33.3273L2.4672 34.5993C3.23554 35.3933 4.50705 35.3978 5.28106 34.6093C12.2738 27.486 21.1567 18.4902 29.0101 10.493L29.0099 61.3755C29.0099 62.4602 29.8892 63.3395 30.9739 63.3395L32.6819 63.3395C33.7666 63.3395 34.6459 62.4602 34.6459 61.3755L34.646 10.4929L58.3388 34.6185C59.1096 35.4034 60.3748 35.4021 61.1441 34.6157L62.4022 33.3294Z" fill="white"/>
</svg>
