<svg width="18" height="18" viewBox="0 0 18 18" fill="none" xmlns="http://www.w3.org/2000/svg">
<g opacity="0.5">
<path d="M17.2969 1.94655H13.8344V1.22034C13.8344 0.822496 13.5196 0.5 13.1312 0.5C12.7429 0.5 12.4281 0.822496 12.4281 1.22034V1.94655H5.57188V1.22034C5.57188 0.822496 5.25709 0.5 4.86875 0.5C4.48042 0.5 4.16563 0.822496 4.16563 1.22034V1.94655H0.703125C0.314789 1.94655 0 2.26908 0 2.66689V16.7797C0 17.1775 0.314789 17.5 0.703125 17.5H17.2969C17.6852 17.5 18 17.1775 18 16.7797V2.66689C18 2.26908 17.6852 1.94655 17.2969 1.94655ZM16.5938 16.0593H1.40625V3.38723H4.16563V4.11347C4.16563 4.51132 4.48042 4.83381 4.86875 4.83381C5.25709 4.83381 5.57188 4.51132 5.57188 4.11347V3.38723H12.4281V4.11347C12.4281 4.51132 12.7429 4.83381 13.1312 4.83381C13.5195 4.83381 13.8343 4.51132 13.8343 4.11347V3.38723H16.5938V16.0593Z" fill="white"/>
<path d="M9 9.21429C9.52424 9.21429 9.94922 8.77891 9.94922 8.24184C9.94922 7.70476 9.52424 7.26938 9 7.26938C8.47576 7.26938 8.05078 7.70476 8.05078 8.24184C8.05078 8.77891 8.47576 9.21429 9 9.21429Z" fill="white"/>
<path d="M9 13.4467C9.52424 13.4467 9.94922 13.0113 9.94922 12.4742C9.94922 11.9371 9.52424 11.5017 9 11.5017C8.47576 11.5017 8.05078 11.9371 8.05078 12.4742C8.05078 13.0113 8.47576 13.4467 9 13.4467Z" fill="white"/>
<path d="M4.86865 9.21429C5.39289 9.21429 5.81787 8.77891 5.81787 8.24184C5.81787 7.70476 5.39289 7.26938 4.86865 7.26938C4.34441 7.26938 3.91943 7.70476 3.91943 8.24184C3.91943 8.77891 4.34441 9.21429 4.86865 9.21429Z" fill="white"/>
<path d="M13.1311 9.21429C13.6553 9.21429 14.0803 8.77891 14.0803 8.24184C14.0803 7.70476 13.6553 7.26938 13.1311 7.26938C12.6069 7.26938 12.1819 7.70476 12.1819 8.24184C12.1819 8.77891 12.6069 9.21429 13.1311 9.21429Z" fill="white"/>
<path d="M4.86865 13.4467C5.39289 13.4467 5.81787 13.0113 5.81787 12.4742C5.81787 11.9371 5.39289 11.5017 4.86865 11.5017C4.34441 11.5017 3.91943 11.9371 3.91943 12.4742C3.91943 13.0113 4.34441 13.4467 4.86865 13.4467Z" fill="white"/>
<path d="M13.1311 13.4467C13.6553 13.4467 14.0803 13.0113 14.0803 12.4742C14.0803 11.9371 13.6553 11.5017 13.1311 11.5017C12.6069 11.5017 12.1819 11.9371 12.1819 12.4742C12.1819 13.0113 12.6069 13.4467 13.1311 13.4467Z" fill="white"/>
</g>
</svg>
