<svg width="25" height="21" viewBox="0 0 25 21" fill="none" xmlns="http://www.w3.org/2000/svg">
<path d="M6.21895 1.04348C10.3985 0.680167 14.6016 0.680167 18.7812 1.04348L20.7948 1.21853C22.1353 1.33505 23.2834 2.13461 23.8782 3.27831C23.9543 3.42463 23.8973 3.60178 23.7571 3.68859L15.4025 8.86049C13.6106 9.96971 11.3513 9.99298 9.537 8.9209L1.12656 3.9511C0.990682 3.87081 0.928311 3.70553 0.989548 3.56006C1.53376 2.2673 2.75726 1.3444 4.20531 1.21853L6.21895 1.04348Z" fill="white"/>
<path d="M0.982704 6.18917C0.774753 6.06629 0.509415 6.19853 0.485175 6.43885C0.146861 9.79303 0.228742 13.179 0.730819 16.5178C0.995504 18.2779 2.43205 19.6273 4.20531 19.7815L6.21895 19.9565C10.3985 20.3198 14.6016 20.3198 18.7812 19.9565L20.7948 19.7815C22.5681 19.6273 24.0046 18.2779 24.2693 16.5178C24.786 13.0817 24.8577 9.59565 24.4843 6.1457C24.4581 5.90368 24.1882 5.77388 23.9813 5.90201L16.4552 10.561C14.0309 12.0617 10.9742 12.0932 8.51954 10.6428L0.982704 6.18917Z" fill="white"/>
</svg>
