<svg width="20" height="20" viewBox="0 0 20 20" fill="none" xmlns="http://www.w3.org/2000/svg">
<path d="M6.07433 4.08974C8.68653 3.86267 11.3135 3.86267 13.9257 4.08974L15.1842 4.19914C16.022 4.27197 16.7396 4.77169 17.1114 5.48651C17.159 5.57795 17.1233 5.68867 17.0357 5.74293L11.814 8.97537C10.6941 9.66863 9.28204 9.68318 8.14811 9.01313L2.89159 5.907C2.80666 5.85682 2.76768 5.75352 2.80595 5.6626C3.14608 4.85463 3.91078 4.27781 4.8158 4.19914L6.07433 4.08974Z" fill="#294835"/>
<path d="M2.80167 7.30579C2.67171 7.22899 2.50587 7.31164 2.49072 7.46184C2.27927 9.5582 2.33045 11.6744 2.64425 13.7612C2.80967 14.8613 3.70751 15.7046 4.8158 15.801L6.07433 15.9104C8.68653 16.1374 11.3135 16.1374 13.9257 15.9104L15.1842 15.801C16.2925 15.7046 17.1904 14.8613 17.3558 13.7612C17.6787 11.6136 17.7235 9.43484 17.4902 7.27862C17.4738 7.12736 17.3051 7.04624 17.1758 7.12632L12.472 10.0382C10.9568 10.9761 9.04634 10.9958 7.5122 10.0893L2.80167 7.30579Z" fill="#294835"/>
</svg>
