<svg width="36" height="42" viewBox="0 0 36 42" fill="none" xmlns="http://www.w3.org/2000/svg">
<path d="M4.54677 41.1251C3.87523 41.1238 3.21558 40.9478 2.63271 40.6143C1.32021 39.8705 0.504272 38.4268 0.504272 36.8594V5.1407C0.504272 3.56898 1.32021 2.1296 2.63271 1.38585C3.22946 1.04289 3.90738 0.866524 4.59562 0.875182C5.28385 0.88384 5.95712 1.07721 6.54505 1.43507L33.6536 17.6619C34.2186 18.0162 34.6844 18.5081 35.0072 19.0916C35.33 19.6751 35.4994 20.331 35.4994 20.9979C35.4994 21.6647 35.33 22.3207 35.0072 22.9041C34.6844 23.4876 34.2186 23.9796 33.6536 24.3338L6.54068 40.5651C5.939 40.9288 5.24985 41.1224 4.54677 41.1251Z" fill="white"/>
</svg>
