<?xml version="1.0" encoding="UTF-8" standalone="no"?>
<svg
   width="23"
   height="23"
   viewBox="0 0 23 23"
   fill="none"
   version="1.1"
   id="svg1"
   sodipodi:docname="akar-icons_cross.svg"
   inkscape:version="1.3.2 (091e20e, 2023-11-25, custom)"
   xmlns:inkscape="http://www.inkscape.org/namespaces/inkscape"
   xmlns:sodipodi="http://sodipodi.sourceforge.net/DTD/sodipodi-0.dtd"
   xmlns="http://www.w3.org/2000/svg"
   xmlns:svg="http://www.w3.org/2000/svg">
  <sodipodi:namedview
     id="namedview1"
     pagecolor="#ffffff"
     bordercolor="#cccccc"
     borderopacity="1"
     inkscape:showpageshadow="0"
     inkscape:pageopacity="1"
     inkscape:pagecheckerboard="0"
     inkscape:deskcolor="#d1d1d1"
     inkscape:zoom="51.347826"
     inkscape:cx="11.490262"
     inkscape:cy="11.5"
     inkscape:window-width="3440"
     inkscape:window-height="1377"
     inkscape:window-x="-8"
     inkscape:window-y="-8"
     inkscape:window-maximized="1"
     inkscape:current-layer="svg1" />
  <path
     style="color:#000000;fill:#ffffff;stroke-linecap:round;-inkscape-stroke:none"
     d="m 11.314453,2.7714844 a 1,1 0 0 0 -1,1 V 10.314453 H 3.7714844 a 1,1 0 0 0 -1,1 1,1 0 0 0 1,1 h 6.5429686 v 6.541016 a 1,1 0 0 0 1,1 1,1 0 0 0 1,-1 v -6.541016 h 6.542969 a 1,1 0 0 0 1,-1 1,1 0 0 0 -1,-1 H 12.314453 V 3.7714844 a 1,1 0 0 0 -1,-1 z"
     id="path1" />
  <defs
     id="defs1">
    <clipPath
       clipPathUnits="userSpaceOnUse"
       id="clipPath2">
      <g
         id="g3">
        <rect
           width="16"
           height="16"
           fill="#ffffff"
           transform="rotate(-45)"
           id="rect2"
           x="-7.9999938"
           y="7.9999938" />
      </g>
    </clipPath>
  </defs>
</svg>
