<svg width="27" height="30" viewBox="0 0 27 30" fill="none" xmlns="http://www.w3.org/2000/svg">
<path d="M13.3083 8.20312C10.5818 8.20312 9.32965 9.8373 9.32965 10.9403C9.32965 11.737 9.99608 12.1047 10.5414 12.1047C11.632 12.1047 11.1877 10.5318 13.2477 10.5318C14.2575 10.5318 15.0654 10.9813 15.0654 11.9209C15.0654 13.024 13.9344 13.6572 13.2679 14.2291C12.6822 14.7398 11.9148 15.5774 11.9148 17.3341C11.9148 18.3962 12.1974 18.7026 13.0255 18.7026C14.0151 18.7026 14.2171 18.2533 14.2171 17.8651C14.2171 16.8029 14.2373 16.1901 15.348 15.3118C15.8934 14.8828 17.61 13.4937 17.61 11.5736C17.61 9.65349 15.8933 8.20318 13.3083 8.20312Z" fill="#1D1D1D"/>
<path d="M13.0457 20.1123C12.1975 20.1123 11.5108 20.8273 11.5108 21.6852C11.5108 22.5227 12.1773 23.2581 13.0457 23.2581C13.9141 23.2581 14.6008 22.5227 14.6008 21.6852C14.6008 20.8273 13.8939 20.1123 13.0457 20.1123Z" fill="#1D1D1D"/>
<path d="M24.608 5.73115L15.8875 0.645169C14.4149 -0.213754 12.5851 -0.213754 11.1125 0.645169L2.39199 5.73115C0.916552 6.59166 0 8.1963 0 9.91895V20.083C0 21.8056 0.916552 23.4103 2.39199 24.2708L11.1125 29.3568C12.5848 30.2156 14.4146 30.2158 15.8875 29.3568L24.608 24.2708C26.0834 23.4102 27 21.8056 27 20.0829V9.91895C27 8.1963 26.0834 6.59166 24.608 5.73115ZM24.6824 20.0829C24.6824 20.9703 24.2103 21.7968 23.4503 22.2401L14.7298 27.326C13.9712 27.7684 13.0288 27.7684 12.2702 27.326L3.54975 22.2401C2.78969 21.7969 2.3176 20.9703 2.3176 20.0829V9.91895C2.3176 9.03161 2.78969 8.20509 3.54975 7.76183L12.2702 2.67585C13.0289 2.23341 13.9712 2.23347 14.7298 2.67585L23.4503 7.76183C24.2103 8.20503 24.6824 9.03161 24.6824 9.91895V20.0829Z" fill="#1D1D1D"/>
</svg>
