<svg width="18" height="18" viewBox="0 0 18 18" fill="none" xmlns="http://www.w3.org/2000/svg">
<g opacity="0.5">
<path fill-rule="evenodd" clip-rule="evenodd" d="M6.32812 0C5.9398 0 5.625 0.3148 5.625 0.703125V5.34375H4.92188C4.53355 5.34375 4.21875 5.65855 4.21875 6.04688C4.21875 6.4352 4.53355 6.75 4.92188 6.75H6.32812H7.73438C8.1227 6.75 8.4375 6.4352 8.4375 6.04688C8.4375 5.65855 8.1227 5.34375 7.73438 5.34375H7.03125V1.40625H16.5938V10.9688H12.6562V10.2656C12.6562 9.8773 12.3414 9.5625 11.9531 9.5625C11.5648 9.5625 11.25 9.8773 11.25 10.2656V11.6719V13.0781C11.25 13.4664 11.5648 13.7812 11.9531 13.7812C12.3414 13.7812 12.6562 13.4664 12.6562 13.0781V12.375H17.2969C17.6852 12.375 18 12.0602 18 11.6719V0.703125C18 0.3148 17.6852 0 17.2969 0H6.32812ZM0 6.04688C0 5.65855 0.3148 5.34375 0.703125 5.34375H2.10938C2.4977 5.34375 2.8125 5.65855 2.8125 6.04688C2.8125 6.4352 2.4977 6.75 2.10938 6.75H1.40625V7.45312C1.40625 7.84145 1.09145 8.15625 0.703125 8.15625C0.3148 8.15625 0 7.84145 0 7.45312V6.04688ZM0.703125 9.5625C1.09145 9.5625 1.40625 9.8773 1.40625 10.2656V13.0781C1.40625 13.4664 1.09145 13.7812 0.703125 13.7812C0.3148 13.7812 0 13.4664 0 13.0781V10.2656C0 9.8773 0.3148 9.5625 0.703125 9.5625ZM9.84375 6.04688C9.84375 5.65855 10.1586 5.34375 10.5469 5.34375H11.9531C12.3414 5.34375 12.6562 5.65855 12.6562 6.04688V7.45312C12.6562 7.84145 12.3414 8.15625 11.9531 8.15625C11.5648 8.15625 11.25 7.84145 11.25 7.45312V6.75H10.5469C10.1586 6.75 9.84375 6.4352 9.84375 6.04688ZM11.9531 15.1875C12.3414 15.1875 12.6562 15.5023 12.6562 15.8906V17.2969C12.6562 17.6852 12.3414 18 11.9531 18H10.5469C10.1586 18 9.84375 17.6852 9.84375 17.2969C9.84375 16.9086 10.1586 16.5938 10.5469 16.5938H11.25V15.8906C11.25 15.5023 11.5648 15.1875 11.9531 15.1875ZM4.92188 16.5938C4.53355 16.5938 4.21875 16.9086 4.21875 17.2969C4.21875 17.6852 4.53355 18 4.92188 18H7.73438C8.1227 18 8.4375 17.6852 8.4375 17.2969C8.4375 16.9086 8.1227 16.5938 7.73438 16.5938H4.92188ZM0.703125 15.1875C1.09145 15.1875 1.40625 15.5023 1.40625 15.8906V16.5938H2.10938C2.4977 16.5938 2.8125 16.9086 2.8125 17.2969C2.8125 17.6852 2.4977 18 2.10938 18H0.703125C0.3148 18 0 17.6852 0 17.2969V15.8906C0 15.5023 0.3148 15.1875 0.703125 15.1875Z" fill="white"/>
</g>
</svg>
