<svg width="18" height="18" viewBox="0 0 18 18" fill="none" xmlns="http://www.w3.org/2000/svg">
<g opacity="0.5">
<path d="M0 16.9264V13.7199C0 13.1269 0.480604 12.6463 1.0736 12.6463C1.6666 12.6463 2.1472 13.1269 2.1472 13.7199V15.8528H4.28014C4.87314 15.8528 5.35374 16.3334 5.35374 16.9264C5.35374 17.5194 4.87314 18 4.28014 18H1.0736C0.480604 18 0 17.5194 0 16.9264ZM12.6463 1.0736C12.6463 0.480604 13.1269 0 13.7199 0H16.9264C17.5194 0 18 0.480604 18 1.0736V4.28014C18 4.87314 17.5194 5.35374 16.9264 5.35374C16.3334 5.35374 15.8528 4.87314 15.8528 4.28014V2.1472H13.7199C13.1269 2.1472 12.6463 1.6666 12.6463 1.0736ZM6.37157 12.702H11.6284C12.2212 12.702 12.702 12.2212 12.702 11.6284V6.37157C12.702 5.77878 12.2212 5.29797 11.6284 5.29797H6.37157C5.77878 5.29797 5.29797 5.77878 5.29797 6.37157V11.6284C5.29797 12.2212 5.77878 12.702 6.37157 12.702ZM7.44517 7.44517H10.5548V10.5548H7.44517V7.44517Z" fill="white"/>
</g>
</svg>
