<svg width="18" height="12" viewBox="0 0 18 12" fill="none" xmlns="http://www.w3.org/2000/svg">
<path d="M17.7961 9.87654C16.9826 8.56223 16.0306 7.34384 14.9572 6.24339C14.9377 6.21837 14.9271 6.18727 14.9271 6.15521C14.9271 6.12315 14.9377 6.09205 14.9572 6.06703C15.8809 4.7732 16.6971 3.40214 17.3975 1.96827C17.4988 1.76309 17.5469 1.53461 17.5373 1.3048C17.5277 1.07499 17.4606 0.851598 17.3425 0.656103C17.2347 0.457407 17.0773 0.291834 16.8864 0.176494C16.6954 0.0611539 16.4779 0.000230459 16.2564 1.98184e-05H14.1942C13.9325 0.00523097 13.6777 0.0869983 13.4598 0.235711C13.2418 0.384424 13.0697 0.593902 12.9638 0.839524C12.3648 2.19907 11.647 3.5001 10.8191 4.72664V1.26986C10.82 1.10284 10.7886 0.937294 10.7268 0.782808C10.6649 0.628321 10.5738 0.487963 10.4587 0.369861C10.3437 0.251759 10.2069 0.158259 10.0564 0.0947748C9.90584 0.0312908 9.74454 -0.000915885 9.58179 1.98184e-05H6.57101C6.39574 0.00281658 6.22454 0.0546923 6.07589 0.150047C5.92725 0.245401 5.8068 0.380612 5.72756 0.541084C5.64832 0.701556 5.61329 0.881193 5.62626 1.0606C5.63922 1.24001 5.69969 1.41238 5.80113 1.5591L6.07609 1.95416C6.22357 2.17154 6.30273 2.43002 6.30293 2.6949V5.40389C5.39553 4.02621 4.67408 2.52878 4.15826 0.952399C4.06524 0.674618 3.89008 0.433554 3.65718 0.262829C3.42429 0.092104 3.14529 0.00022957 2.85909 1.98184e-05H1.17497C0.996033 0.00221564 0.819883 0.0458298 0.659651 0.127611C0.49942 0.209393 0.359239 0.327233 0.249555 0.47235C0.139872 0.617466 0.0635153 0.786117 0.0261755 0.965732C-0.0111643 1.14535 -0.00852405 1.33129 0.0338995 1.50972C0.961881 5.55204 2.9072 8.903 5.37495 10.6808C5.52284 10.7886 5.70627 10.8321 5.88525 10.8017C6.06424 10.7713 6.22425 10.6695 6.33042 10.5185C6.38352 10.4431 6.42156 10.3577 6.44235 10.2671C6.46315 10.1766 6.46629 10.0827 6.45159 9.99093C6.4369 9.89914 6.40466 9.81123 6.35673 9.73227C6.3088 9.65332 6.24613 9.58487 6.17232 9.53086C4.01391 7.97884 2.29542 5.02294 1.42243 1.41095H2.86596C3.49852 3.38336 4.45138 5.23185 5.68427 6.87831C5.82677 7.06517 6.02302 7.20119 6.24514 7.26704C6.46725 7.3329 6.70395 7.32524 6.92158 7.24515C7.14488 7.16526 7.33805 7.01532 7.47375 6.81655C7.60945 6.61778 7.6808 6.38025 7.67771 6.13757V2.6949C7.67919 2.24644 7.57044 1.80484 7.36151 1.41095H9.42369V5.24163C9.42123 5.51573 9.50673 5.78305 9.66698 6.00234C9.82723 6.22163 10.0533 6.38071 10.3104 6.45503C10.5599 6.54022 10.8297 6.53871 11.0782 6.45072C11.3267 6.36273 11.54 6.19317 11.6852 5.96826C12.6616 4.53871 13.4952 3.01191 14.1736 1.41095H16.0983C15.4431 2.73304 14.6869 3.99979 13.8368 5.1993C13.6224 5.49362 13.5183 5.85725 13.5436 6.22379C13.5688 6.59033 13.7217 6.93532 13.9742 7.19577C14.9768 8.23263 15.8792 9.36666 16.6688 10.582H14.3661C13.6557 9.37516 12.7017 8.3384 11.5684 7.54145C11.3983 7.41359 11.1968 7.33721 10.9865 7.321C10.7763 7.30479 10.5659 7.34939 10.3792 7.44974C10.1871 7.5506 10.0263 7.70433 9.91458 7.89372C9.80289 8.08311 9.74478 8.30068 9.74677 8.52205V10.2011C9.75052 10.2991 9.7166 10.3947 9.65231 10.4673C9.58801 10.5398 9.4985 10.5836 9.40307 10.5891H8.81191C8.62961 10.5891 8.45476 10.6634 8.32585 10.7957C8.19694 10.928 8.12452 11.1074 8.12452 11.2945C8.12452 11.4816 8.19694 11.6611 8.32585 11.7934C8.45476 11.9257 8.62961 12 8.81191 12H9.40307C9.63114 11.9982 9.85661 11.9501 10.0665 11.8586C10.2765 11.7671 10.4667 11.634 10.6264 11.4668C10.7861 11.2997 10.912 11.1018 10.997 10.8846C11.0819 10.6674 11.1243 10.4351 11.1216 10.2011V8.95238C11.9484 9.59071 12.6485 10.3858 13.1837 11.2945C13.3019 11.5047 13.4709 11.6801 13.6744 11.8037C13.8779 11.9272 14.109 11.9949 14.3454 12H16.6688C16.9064 12.0006 17.1397 11.9354 17.3442 11.8112C17.5487 11.687 17.7167 11.5085 17.8305 11.2945C17.9473 11.0761 18.0056 10.8298 17.9996 10.5808C17.9935 10.3317 17.9233 10.0887 17.7961 9.87654Z" fill="#1D1D1D"/>
</svg>
