<svg width="18" height="18" viewBox="0 0 18 18" fill="none" xmlns="http://www.w3.org/2000/svg">
<path d="M15.364 2.63619C9.70758 -3.00824 0.00755859 1.01352 0 9.00014V17.297C0 17.6853 0.314789 18.0001 0.703124 18.0001H8.99999C16.9909 17.9917 21.006 8.28896 15.364 2.63619ZM8.99999 16.5939H1.40625V9.00014C1.40625 4.81292 4.81278 1.40639 8.99999 1.40639C19.0746 1.82366 19.0707 16.1786 8.99999 16.5939ZM11.7159 8.98207C11.4411 8.70799 10.9961 8.70837 10.7218 8.98305L10.2612 9.44433C10.0412 9.30902 9.7259 9.07885 9.34579 8.69965C8.96125 8.31607 8.72887 7.99456 8.59324 7.77083L9.04851 7.31489C9.32051 7.0425 9.3229 6.60202 9.05389 6.32668L6.61735 3.83294C6.48615 3.69868 6.30667 3.62243 6.11894 3.62123H6.11444C5.92832 3.62123 5.74969 3.69506 5.61786 3.82662L3.86275 5.57764C3.74115 5.69893 3.66816 5.86058 3.65758 6.032C3.47301 9.33953 8.0416 14.3647 11.8007 14.3735C11.8626 14.3736 12.2391 14.2864 12.3589 14.1669L14.1372 12.3927C14.4104 12.1308 14.4103 11.659 14.1372 11.3972L11.7159 8.98207ZM11.5815 12.956C11.3614 12.9347 10.9993 12.8757 10.5373 12.7148C9.80767 12.4607 8.67293 11.8936 7.41083 10.6346C5.85921 9.03234 5.25751 7.75093 5.07276 6.35688L6.10808 5.32395L7.5627 6.81275L7.24833 7.12757C7.07115 7.30504 7.00185 7.56341 7.06654 7.8057C7.10338 7.94376 7.33858 8.68369 8.3527 9.69528C9.36604 10.7061 10.0897 10.9373 10.2244 10.9733C10.4671 11.0382 10.7262 10.9688 10.9038 10.791L11.2204 10.474L12.645 11.895L11.5815 12.956Z" fill="#1D1D1D"/>
</svg>
