<svg width="28" height="28" viewBox="0 0 28 28" fill="none" xmlns="http://www.w3.org/2000/svg">
<path fill-rule="evenodd" clip-rule="evenodd" d="M8.15376 5.70564C12.0454 5.40118 15.9548 5.40118 19.8464 5.70564L22.4606 5.91016C23.9167 6.02408 25.1079 7.11537 25.3486 8.55594C25.9508 12.1604 25.9508 15.8397 25.3486 19.4441C25.1079 20.8847 23.9167 21.976 22.4606 22.0899L19.8464 22.2944C15.9548 22.5989 12.0454 22.5989 8.15376 22.2944L5.53961 22.0899C4.08352 21.976 2.89233 20.8847 2.65163 19.4441C2.04939 15.8397 2.04939 12.1604 2.65163 8.55594C2.89233 7.11537 4.08352 6.02408 5.53961 5.91016L8.15376 5.70564ZM11.6667 16.8819V11.1182C11.6667 10.8461 11.9635 10.6781 12.1968 10.8181L16.9999 13.6999C17.2264 13.8359 17.2264 14.1642 16.9999 14.3002L12.1968 17.182C11.9635 17.322 11.6667 17.1539 11.6667 16.8819Z" fill="#294835"/>
</svg>
