<svg width="18" height="14" viewBox="0 0 18 14" fill="none" xmlns="http://www.w3.org/2000/svg">
<path fill-rule="evenodd" clip-rule="evenodd" d="M9 14.0001C6.77365 14.0001 4.80837 13.8617 3.41732 13.7262C1.80208 13.5689 0.499185 12.333 0.270581 10.7267L0.27058 10.7267C0.126586 9.71481 0 8.42183 0 6.99983C0 5.57782 0.126586 4.28484 0.27058 3.27296L0.270581 3.27295C0.499185 1.6666 1.80208 0.430782 3.41732 0.273428C4.80837 0.137918 6.77365 -0.000488281 9 -0.000488281C11.2263 -0.000488281 13.1916 0.137918 14.5827 0.273428C16.1979 0.430782 17.5008 1.6666 17.7294 3.27296C17.8734 4.28484 18 5.57782 18 6.99983C18 8.42183 17.8734 9.71481 17.7294 10.7267C17.5008 12.333 16.1979 13.5689 14.5827 13.7262C13.1916 13.8617 11.2263 14.0001 9 14.0001ZM3.55367 12.3266C4.91135 12.4589 6.82978 12.5939 9 12.5939C11.1702 12.5939 13.0887 12.4589 14.4463 12.3266C15.4217 12.2316 16.2008 11.4869 16.3372 10.5286C16.4742 9.56601 16.5938 8.34089 16.5938 6.99983C16.5938 5.65876 16.4742 4.43364 16.3372 3.47107C16.2008 2.51272 15.4217 1.76808 14.4463 1.67305C13.0887 1.54079 11.1702 1.40576 9 1.40576C6.82978 1.40576 4.91135 1.54079 3.55367 1.67305C2.57825 1.76808 1.79919 2.51271 1.6628 3.47107C1.52583 4.43364 1.40625 5.65876 1.40625 6.99983C1.40625 8.34089 1.52583 9.566 1.6628 10.5286C1.79919 11.4869 2.57825 12.2316 3.55367 12.3266ZM7.44787 10.193C7.23019 10.3163 6.9634 10.3146 6.74726 10.1887C6.53112 10.0627 6.39819 9.83136 6.39819 9.58119V4.40351C6.39819 4.15333 6.53112 3.922 6.74726 3.79603C6.9634 3.67006 7.23019 3.66841 7.44787 3.79171L12.0182 6.38056C12.2385 6.50538 12.3748 6.73908 12.3748 6.99235C12.3748 7.24562 12.2385 7.47931 12.0182 7.60414L7.44787 10.193ZM10.245 6.99235L7.80444 5.60988V8.37482L10.245 6.99235Z" fill="#1D1D1D"/>
</svg>
