<svg width="66" height="66" viewBox="0 0 66 66" fill="none" xmlns="http://www.w3.org/2000/svg">
<g clip-path="url(#clip0_1_352)">
<path d="M33 14.4375C31.5723 14.4375 30.1766 14.0141 28.9895 13.2209C27.8024 12.4277 26.8771 11.3003 26.3307 9.98125C25.7844 8.66219 25.6414 7.21074 25.92 5.81044C26.1985 4.41014 26.886 3.12388 27.8956 2.11432C28.9051 1.10476 30.1914 0.417243 31.5917 0.138706C32.992 -0.139831 34.4434 0.00312401 35.7625 0.549494C37.0816 1.09586 38.209 2.02111 39.0022 3.20823C39.7954 4.39534 40.2188 5.79102 40.2188 7.21875C40.2167 9.13265 39.4555 10.9676 38.1022 12.3209C36.7488 13.6742 34.9139 14.4355 33 14.4375Z" fill="#294835"/>
<path d="M55.6874 14.5406L55.6294 14.5561L55.5753 14.5729C55.4464 14.6089 55.3175 14.6476 55.1886 14.6876C52.7896 15.3914 41.1468 18.6734 32.9445 18.6734C25.3223 18.6734 14.7326 15.8374 11.345 14.8745C11.0078 14.7441 10.6635 14.6331 10.3137 14.5419C7.8645 13.8974 6.18872 16.3853 6.18872 18.6592C6.18872 20.9112 8.21255 21.9837 10.2557 22.7532V22.7893L22.5302 26.623C23.7844 27.1038 24.1196 27.595 24.2833 28.0204C24.8157 29.3855 24.3903 32.0886 24.2395 33.0322L23.4918 38.833L19.3423 61.545C19.3294 61.6069 19.3178 61.67 19.3075 61.7345L19.2779 61.8982C18.9788 63.98 20.5076 66 23.4029 66C25.9294 66 27.0445 64.2559 27.5279 61.8827C27.5279 61.8827 31.1372 41.571 32.9419 41.571C34.7466 41.571 38.4643 61.8827 38.4643 61.8827C38.9477 64.2559 40.0627 66 42.5893 66C45.4922 66 47.0211 63.971 46.7143 61.8827C46.6872 61.7048 46.655 61.5295 46.6163 61.3594L42.4101 38.8356L41.6637 33.0348C41.1236 29.6562 41.558 28.5398 41.705 28.2782C41.7089 28.272 41.7124 28.2655 41.7153 28.2588C41.8545 28.001 42.4887 27.4235 43.9686 26.8679L55.4773 22.8448C55.548 22.8259 55.6177 22.8036 55.6861 22.7777C57.7486 22.0043 59.8111 20.9344 59.8111 18.6618C59.8111 16.3891 58.1367 13.8974 55.6874 14.5406Z" fill="#294835"/>
</g>
<defs>
<clipPath id="clip0_1_352">
<rect width="66" height="66" fill="white"/>
</clipPath>
</defs>
</svg>
