<svg width="72" height="72" viewBox="0 0 72 72" fill="none" xmlns="http://www.w3.org/2000/svg">
<path d="M28.9999 57C28.011 57 27.0671 56.8562 26.1944 56.5729C23.4428 55.6795 21.7339 53.6259 20.3607 51.9761C19.7721 51.2689 19.1635 50.5375 18.6994 50.1997C18.3754 49.9639 17.8627 49.7236 17.2978 49.4852L12.8149 67.6994L22.5143 65.9389L30.2887 71.9999L34.1994 56.1102C32.8699 56.4417 30.6176 57 28.9999 57Z" fill="#294835"/>
<path d="M54.7024 49.4852C54.1375 49.7236 53.6248 49.9639 53.3009 50.1997C52.8367 50.5375 52.2281 51.2689 51.6395 51.9761C50.2663 53.6261 48.5573 55.6796 45.8057 56.573C44.933 56.8564 43.9891 57.0001 43.0004 57.0001C41.3828 57.0001 39.1303 56.4418 37.8008 56.1105L41.7114 72L49.4859 65.9391L59.1852 67.6995L54.7024 49.4852Z" fill="#294835"/>
<path d="M63.5094 26.3907C63.5094 23.5471 60.8166 21.1636 59.9834 18.5977C59.1199 15.9383 59.8678 12.4331 58.2569 10.2195C56.6299 7.98384 53.0541 7.61948 50.8184 5.99245C48.6049 4.38145 47.1623 1.08422 44.503 0.220781C44.0192 0.0638437 43.5163 0 43.0002 0C40.7791 0 38.3076 1.18012 36.0001 1.18012C33.6927 1.18012 31.2209 0 28.9999 0C28.4837 0 27.9811 0.0637031 27.4972 0.220922C24.8378 1.08436 23.3953 4.38159 21.1817 5.99259C18.9461 7.61962 15.3704 7.98398 13.7433 10.2195C12.1323 12.4331 12.8803 15.9383 12.0168 18.5977C11.1837 21.1635 8.49072 23.547 8.49072 26.3907C8.49072 29.2344 11.1837 31.6177 12.0168 34.1835C12.8802 36.8429 12.1323 40.3481 13.7433 42.5617C15.3704 44.7974 18.9461 45.1617 21.1818 46.7887C23.3954 48.3997 24.838 51.697 27.4973 52.5604C27.9811 52.7175 28.4839 52.7812 29 52.7812C31.2211 52.7812 33.6927 51.6011 36.0002 51.6011C38.3074 51.6011 40.7795 52.7812 43.0004 52.7812C43.5166 52.7812 44.0191 52.7175 44.5031 52.5604C47.1625 51.697 48.605 48.3996 50.8186 46.7887C53.0542 45.1617 56.6299 44.7974 58.2571 42.5617C59.8681 40.3481 59.1201 36.8429 59.9835 34.1835C60.8166 31.6177 63.5094 29.2343 63.5094 26.3907ZM36.0001 44.4645C26.0341 44.4645 17.9262 36.3566 17.9262 26.3907C17.9262 16.4246 26.0341 8.3167 36.0001 8.3167C45.9662 8.3167 54.074 16.4246 54.074 26.3907C54.074 36.3566 45.9662 44.4645 36.0001 44.4645Z" fill="#294835"/>
<path d="M39.1844 39.8563C46.6298 38.0964 51.2388 30.6339 49.4788 23.1885C47.7188 15.7431 40.2564 11.1341 32.811 12.8941C25.3655 14.654 20.7566 22.1165 22.5165 29.5619C24.2765 37.0073 31.7389 41.6163 39.1844 39.8563Z" fill="#294835"/>
</svg>
