<svg width="61" height="61" viewBox="0 0 61 61" fill="none" xmlns="http://www.w3.org/2000/svg">
<g clip-path="url(#clip0_1_545)">
<path d="M44.7965 26.7212H38.9313L41.1371 21.2066C41.4501 20.4243 40.8725 19.5728 40.0309 19.5728H34.0739C33.5867 19.5728 33.1486 19.8693 32.9676 20.3217L28.202 32.2357C27.8895 33.0171 28.4656 33.8696 29.3082 33.8696H33.7393L31.7266 41.9204C31.5918 42.4595 31.8476 43.0201 32.343 43.2717C32.8379 43.5231 33.4415 43.3997 33.7977 42.9721L45.7118 28.6752C46.358 27.9 45.8037 26.7212 44.7965 26.7212Z" fill="#294835"/>
<path d="M59.6895 53.7321H57.3066V30.8922C58.2212 30.8923 59.1357 30.5431 59.8341 29.8446C61.2195 28.4591 61.2273 26.2096 59.8578 24.8142L57.3066 21.9859V6.0759C57.3066 5.41788 56.7732 4.88449 56.1152 4.88449H50.3631C49.7051 4.88449 49.1717 5.41788 49.1717 6.0759V12.9673L37.937 0.512267C37.4667 -0.00897367 36.6397 -0.0154073 36.1644 0.51596L14.2458 25.0203C12.4052 26.8979 13.1663 30.0305 15.6074 30.8923V43.7908C12.8141 42.7988 10.8418 40.1112 10.8418 37.0525V19.4111C12.9763 18.1731 14.416 15.8644 14.416 13.2243V8.45871C14.416 7.80081 13.8826 7.2673 13.2246 7.2673H10.8418V3.69308C10.8418 3.03519 10.3084 2.50168 9.65039 2.50168C8.99238 2.50168 8.45898 3.03519 8.45898 3.69308V7.2673H6.07617V3.69308C6.07617 3.03519 5.54278 2.50168 4.88477 2.50168C4.22675 2.50168 3.69336 3.03519 3.69336 3.69308V7.2673H1.31055C0.652533 7.2673 0.119141 7.80069 0.119141 8.45871V13.2243C0.119141 15.8644 1.55884 18.1731 3.69336 19.4111V37.0525C3.69336 44.1102 8.82046 50.0131 15.6074 51.1498V53.7321H13.2246C12.5666 53.7321 12.0332 54.2655 12.0332 54.9235V59.6892C12.0332 60.3471 12.5666 60.8806 13.2246 60.8806H59.6895C60.3475 60.8806 60.8809 60.3471 60.8809 59.6892V54.9235C60.8809 54.2657 60.3475 53.7321 59.6895 53.7321ZM15.9563 26.6795C16.0028 26.6325 15.0098 27.7394 37.0561 3.09321C59.1085 27.5402 58.1049 26.4306 58.1492 26.4753C59.2471 27.573 57.6075 29.2485 56.4862 28.1805L37.944 7.25992C37.4813 6.73796 36.6404 6.71342 36.1569 7.2642L17.6176 28.3863C16.4816 29.464 14.8511 27.7844 15.9563 26.6795ZM2.50195 9.65011H12.0332V13.2243C12.0332 15.8521 9.89534 17.99 7.26758 17.99C4.63981 17.99 2.50195 15.8521 2.50195 13.2243V9.65011ZM6.07617 37.0525V20.2716C6.87561 20.4064 7.65812 20.4066 8.45898 20.2716V37.0525C8.45898 41.4593 11.4684 45.2163 15.6074 46.2799V48.7285C10.0909 47.6265 6.07617 42.8177 6.07617 37.0525ZM17.9902 30.892C18.4776 30.7199 18.9354 30.4388 19.3256 30.0487C19.3769 29.9973 18.5895 30.8897 37.0567 9.85122C56.0106 31.2353 54.7249 29.8022 54.9238 29.9805V53.7321H17.9902V30.892ZM58.498 58.4978H14.416V56.115H58.498V58.4978Z" fill="#294835"/>
</g>
<defs>
<clipPath id="clip0_1_545">
<rect width="61" height="61" fill="white"/>
</clipPath>
</defs>
</svg>
