<svg width="124" height="50" viewBox="0 0 124 50" fill="none" xmlns="http://www.w3.org/2000/svg">
<path d="M62 0.67688C27.7588 0.67688 0 24.9997 0 24.9997C0 24.9997 27.7588 49.3231 62 49.3231C96.2417 49.3231 124 24.9997 124 24.9997C124 24.9997 96.2417 0.67688 62 0.67688ZM62 47.2564C49.7084 47.2564 39.7436 37.2916 39.7436 25C39.7436 12.7081 49.7084 2.74364 62 2.74364C74.2916 2.74364 84.2564 12.7076 84.2564 25C84.2564 37.2916 74.2916 47.2564 62 47.2564Z" fill="#294835"/>
<path d="M62 42.4868C71.6578 42.4868 79.487 34.6576 79.487 24.9998C79.487 15.3419 71.6578 7.51273 62 7.51273C52.3421 7.51273 44.5129 15.3419 44.5129 24.9998C44.5129 34.6576 52.3421 42.4868 62 42.4868Z" fill="#294835"/>
</svg>
