<svg width="80" height="80" viewBox="0 0 80 80" fill="none" xmlns="http://www.w3.org/2000/svg">
<g clip-path="url(#clip0_1_345)">
<path d="M28.635 32.496C28.635 34.516 26.996 36.157 24.971 36.157C22.946 36.157 21.302 34.515 21.302 32.496C21.302 30.466 22.946 28.83 24.971 28.83C26.996 28.83 28.635 30.466 28.635 32.496ZM25.359 57.584L26.144 71.099C26.144 71.576 26.53 71.964 27.001 71.964C27.48 71.964 27.86 71.575 27.86 71.099L28.598 57.584H30.99L28.517 42.433L33.491 52.339C33.678 52.778 34.18 52.986 34.62 52.794C35.055 52.613 35.262 52.11 35.071 51.671C35.071 51.671 31.423 41.807 30.522 39.968C29.631 38.13 28.741 37.011 25.32 37.011H24.621C21.206 37.011 20.315 38.129 19.414 39.962C18.518 41.806 14.857 51.664 14.857 51.664C14.678 52.104 14.88 52.612 15.315 52.793C15.755 52.985 16.257 52.772 16.444 52.338L21.423 42.432L18.948 57.583H21.338L22.081 71.098C22.081 71.575 22.467 71.963 22.941 71.963C23.422 71.963 23.803 71.574 23.803 71.098L24.54 57.583L25.359 57.584ZM54.582 28.82C52.553 28.82 50.911 30.456 50.911 32.486C50.911 34.506 52.557 36.142 54.582 36.142C56.602 36.142 58.232 34.506 58.232 32.486C58.232 30.456 56.602 28.82 54.582 28.82ZM58.378 50.392L58.621 42.418L63.095 52.329C63.282 52.769 63.783 52.972 64.224 52.785C64.66 52.603 64.871 52.101 64.685 51.656C64.685 51.656 61.532 41.797 60.63 39.953C59.734 38.12 58.347 37.001 54.924 37.001H54.225C50.813 37.001 49.41 38.12 48.514 39.953C47.613 41.796 44.462 51.656 44.462 51.656C44.277 52.101 44.484 52.603 44.92 52.785C45.36 52.972 45.862 52.764 46.049 52.329L50.528 42.418L50.777 50.392L50.067 70.415C50.01 71.213 50.611 71.901 51.398 71.953C51.44 71.953 51.476 71.959 51.502 71.959C52.253 71.959 52.885 71.384 52.941 70.623L54.573 55.135L56.204 70.623C56.256 71.384 56.888 71.959 57.643 71.959C57.674 71.959 57.71 71.959 57.742 71.953C58.539 71.901 59.13 71.213 59.078 70.415L58.378 50.392ZM39.77 51.096C38.53 51.096 37.523 52.101 37.523 53.343C37.523 54.586 38.53 55.585 39.77 55.585C41.01 55.585 42.022 54.586 42.022 53.343C42.022 52.101 41.01 51.096 39.77 51.096ZM39.77 64.337C39.77 64.337 40.782 71.368 40.782 71.374C40.914 71.71 41.243 71.959 41.636 71.959C42.045 71.959 42.379 71.689 42.501 71.321C42.511 71.305 42.532 70.886 42.511 70.819L42.097 62.182L42.224 59.22C42.34 58.21 42.361 58.505 43.513 57.822C44.684 57.118 46.68 54.032 46.773 53.877C46.869 53.727 47.055 53.452 47.091 53.281C47.146 52.966 46.944 52.675 46.636 52.613C46.398 52.571 46.2 52.696 46.053 52.862C45.898 53.022 43.604 56.077 41.88 56.372C41.499 56.315 41.08 56.113 39.987 56.113H39.552C38.459 56.113 38.045 56.315 37.659 56.372C35.934 56.077 33.64 53.022 33.485 52.862C33.338 52.696 33.141 52.571 32.908 52.613C32.6 52.675 32.398 52.97 32.457 53.281C32.488 53.452 32.675 53.726 32.77 53.877C32.866 54.032 34.864 57.118 36.029 57.822C37.181 58.506 37.202 58.211 37.319 59.22L37.441 62.182L37.032 70.819C37.011 70.891 37.032 71.305 37.042 71.321C37.164 71.689 37.492 71.959 37.907 71.959C38.295 71.959 38.629 71.71 38.761 71.374C38.763 71.368 39.77 64.337 39.77 64.337ZM78.909 36.747C80.017 35.163 79.623 32.973 78.028 31.864L45.613 9.313C42.284 6.994 37.256 6.994 33.931 9.313L1.50902 31.864C-0.0829759 32.972 -0.478976 35.163 0.629024 36.747C1.73702 38.337 3.92002 38.736 5.51202 37.628L37.929 15.077C38.843 14.445 40.692 14.445 41.606 15.077L74.021 37.628C74.632 38.052 75.336 38.26 76.02 38.26C77.138 38.254 78.23 37.726 78.909 36.747Z" fill="#294835"/>
</g>
<defs>
<clipPath id="clip0_1_345">
<rect width="79.538" height="79.538" fill="white"/>
</clipPath>
</defs>
</svg>
